<mxfile host="app.diagrams.net" modified="2022-12-27T11:53:15.182Z" agent="5.0 (Windows NT 10.0; Win64; x64) AppleWebKit/537.36 (KHTML, like Gecko) Chrome/106.0.0.0 YaBrowser/22.11.3.818 Yowser/2.5 Safari/537.36" etag="RWAuNd4ov8qwWYxR1rif" version="20.7.4" type="github">
  <diagram id="IKxiyN_XWuxEhGhjyTU6" name="Страница 1">
    <mxGraphModel dx="1117" dy="676" grid="1" gridSize="10" guides="1" tooltips="1" connect="1" arrows="1" fold="1" page="1" pageScale="1" pageWidth="827" pageHeight="1169" math="0" shadow="0">
      <root>
        <mxCell id="0" />
        <mxCell id="1" parent="0" />
        <mxCell id="SQR-gg03ncgTsfnTzXYK-3" value="Отличная оценка" style="edgeStyle=orthogonalEdgeStyle;rounded=0;orthogonalLoop=1;jettySize=auto;html=1;" parent="1" source="SQR-gg03ncgTsfnTzXYK-1" edge="1">
          <mxGeometry relative="1" as="geometry">
            <mxPoint x="702" y="630" as="targetPoint" />
          </mxGeometry>
        </mxCell>
        <mxCell id="SQR-gg03ncgTsfnTzXYK-1" value="Заработать отличную оценку" style="rounded=0;whiteSpace=wrap;html=1;" parent="1" vertex="1">
          <mxGeometry x="290" y="550" width="248" height="160" as="geometry" />
        </mxCell>
        <mxCell id="SQR-gg03ncgTsfnTzXYK-4" value="Подготовка с педагогами" style="edgeStyle=orthogonalEdgeStyle;rounded=0;orthogonalLoop=1;jettySize=auto;html=1;entryX=0.5;entryY=1;entryDx=0;entryDy=0;" parent="1" target="SQR-gg03ncgTsfnTzXYK-1" edge="1">
          <mxGeometry relative="1" as="geometry">
            <mxPoint x="414" y="840" as="sourcePoint" />
            <mxPoint x="564" y="840" as="targetPoint" />
            <Array as="points" />
          </mxGeometry>
        </mxCell>
        <mxCell id="SQR-gg03ncgTsfnTzXYK-5" value="Подготовка с педагогом,&amp;nbsp;&lt;br&gt;&amp;nbsp;самостоятельная подготовка&lt;br&gt;&amp;nbsp;по&amp;nbsp;конспектам, онлайн урокам и т. д." style="edgeStyle=orthogonalEdgeStyle;rounded=0;orthogonalLoop=1;jettySize=auto;html=1;entryX=0.161;entryY=0;entryDx=0;entryDy=0;entryPerimeter=0;" parent="1" edge="1" target="SQR-gg03ncgTsfnTzXYK-1">
          <mxGeometry x="0.0911" y="-10" relative="1" as="geometry">
            <mxPoint x="330" y="440" as="sourcePoint" />
            <mxPoint x="290" y="629.41" as="targetPoint" />
            <Array as="points">
              <mxPoint x="330" y="440" />
            </Array>
            <mxPoint as="offset" />
          </mxGeometry>
        </mxCell>
        <mxCell id="SQR-gg03ncgTsfnTzXYK-6" value="Моральная подготовка, &lt;br&gt;устранение стресса, волнения" style="edgeStyle=orthogonalEdgeStyle;rounded=0;orthogonalLoop=1;jettySize=auto;html=1;entryX=0.868;entryY=0.013;entryDx=0;entryDy=0;entryPerimeter=0;" parent="1" target="SQR-gg03ncgTsfnTzXYK-1" edge="1">
          <mxGeometry relative="1" as="geometry">
            <mxPoint x="505" y="440" as="sourcePoint" />
            <mxPoint x="496" y="440" as="targetPoint" />
            <Array as="points">
              <mxPoint x="505" y="440" />
            </Array>
          </mxGeometry>
        </mxCell>
      </root>
    </mxGraphModel>
  </diagram>
</mxfile>
